<?xml version="1.0" encoding="utf-8"?>
<!-- Generator: Adobe Illustrator 22.1.0, SVG Export Plug-In . SVG Version: 6.00 Build 0)  -->
<svg version="1.1" id="Layer_1" xmlns="http://www.w3.org/2000/svg" xmlns:xlink="http://www.w3.org/1999/xlink" x="0px" y="0px"
	 viewBox="0 0 256 256" style="enable-background:new 0 0 256 256;" xml:space="preserve">
<style type="text/css">
	.st0{fill:#ACE0F9;}
	.st1{fill:#28B57C;}
	.st2{fill:#E6A7CA;}
	.st3{fill:#06321C;}
	.st4{fill:#FFFFFF;}
</style>
<g>
	<polygon class="st0" points="190.7,132.1 256,128 190.7,123.9 254.9,111.3 189.6,115.7 251.6,94.9 187.5,107.8 246.3,79 
		184.4,100.2 238.9,64 180.2,93.1 229.5,50.1 175.2,86.6 218.5,37.5 169.4,80.8 205.9,26.5 162.9,75.8 192,17.1 155.8,71.6 177,9.7 
		148.2,68.5 161.1,4.4 140.3,66.4 144.7,1.1 132.1,65.3 128,0 123.9,65.3 111.3,1.1 115.7,66.4 94.9,4.4 107.8,68.5 79,9.7 
		100.2,71.6 64,17.1 93.1,75.8 50.1,26.5 86.6,80.8 37.5,37.5 80.8,86.6 26.5,50.1 75.8,93.1 17.1,64 71.6,100.2 9.7,79 68.5,107.8 
		4.4,94.9 66.4,115.7 1.1,111.3 65.3,123.9 0,128 65.3,132.1 1.1,144.7 66.4,140.3 4.4,161.1 68.5,148.2 9.7,177 71.6,155.8 
		17.1,192 75.8,162.9 26.5,205.9 80.8,169.4 37.5,218.5 86.6,175.2 50.1,229.5 93.1,180.2 64,238.9 100.2,184.4 79,246.3 
		107.8,187.5 94.9,251.6 115.7,189.6 111.3,254.9 123.9,190.7 128,256 132.1,190.7 144.7,254.9 140.3,189.6 161.1,251.6 
		148.2,187.5 177,246.3 155.8,184.4 192,238.9 162.9,180.2 205.9,229.5 169.4,175.2 218.5,218.5 175.2,169.4 229.5,205.9 
		180.2,162.9 238.9,192 184.4,155.8 246.3,177 187.5,148.2 251.6,161.1 189.6,140.3 254.9,144.7 	"/>
	<g>
		<path class="st1" d="M124.1,200.2l3.9,6.6l3.9-6.6c-1.3,0-2.6,0.1-3.9,0.1C126.7,200.3,125.4,200.2,124.1,200.2z"/>
		<path class="st1" d="M116.4,187.1l4.4,7.4c4.8,0.3,9.7,0.3,14.5,0l4.4-7.4c-3.9,0.5-7.7,0.7-11.6,0.7
			C124.1,187.8,120.2,187.6,116.4,187.1z"/>
		<path class="st1" d="M51.7,77.7l4.6,7.8c4.1-2.9,8.3-5.5,12.6-7.8H51.7z"/>
		<path class="st1" d="M107.8,172.6l5,8.4c10,1.6,20.4,1.6,30.5,0l5-8.4c-6.6,1.8-13.3,2.7-20.2,2.7
			C121.1,175.3,114.4,174.4,107.8,172.6z"/>
		<path class="st1" d="M81.6,77.7c-7.8,3.4-15.3,7.6-22.4,12.6l4.6,7.8c0.8-0.6,1.6-1.3,2.4-1.9c11.8-9,24.8-15.2,38.5-18.5H81.6z"
			/>
		<path class="st1" d="M128,80.4c-20.9,0-41.2,7-58.5,20.2c-1,0.7-1.9,1.5-2.9,2.3l5,8.4c2.7-2.6,5.5-5.1,8.6-7.4
			c14.1-10.8,30.7-16.5,47.8-16.5c17.1,0,33.7,5.7,47.8,16.5c3,2.3,5.9,4.8,8.6,7.4l5-8.4c-1-0.8-1.9-1.5-2.9-2.3
			C169.2,87.4,148.9,80.4,128,80.4z"/>
		<path class="st1" d="M151.3,77.7c13.7,3.3,26.8,9.6,38.5,18.5c0.8,0.6,1.6,1.2,2.4,1.9l4.6-7.8c-7.1-5-14.6-9.3-22.4-12.6H151.3z"
			/>
		<path class="st1" d="M187.1,77.7c4.3,2.4,8.5,5,12.6,7.8l4.6-7.8H187.1z"/>
		<path class="st1" d="M94.3,149.8l9.2,15.6c7.9,2.9,16.1,4.3,24.4,4.3c8.4,0,16.6-1.5,24.4-4.3l9.2-15.6
			C153.3,155.3,142,160,128,160C114,160,102.7,155.3,94.3,149.8z"/>
		<path class="st2" d="M150,131.3c0-12.1-9.9-22-22-22s-22,9.9-22,22c0,12.1,9.9,22,22,22S150,143.5,150,131.3z M112.4,131.7
			c0-8.6,7-15.6,15.6-15.6c5.9,0,11,3.3,13.7,8.1l-13.7,7.6l0,0l0,0l0,0l0,0l13.7,7.6c-2.7,4.8-7.8,8.1-13.7,8.1
			C119.4,147.3,112.4,140.3,112.4,131.7z"/>
		<path class="st1" d="M128,92.9c-15.9,0-31.3,5.3-44.5,15.3c-3.2,2.4-6.2,5.1-9,8l5.4,9.2c6.5-7.5,22.8-22.8,48-22.8
			s41.5,15.3,48,22.8l5.4-9.2c-2.8-2.9-5.8-5.5-9-8C159.3,98.2,143.9,92.9,128,92.9z"/>
		<path class="st3" d="M141.7,139.2l-13.7-7.6l0,0l0,0l0,0l0,0l13.7-7.6c-2.7-4.8-7.8-8.1-13.7-8.1c-8.6,0-15.6,7-15.6,15.6
			c0,8.6,7,15.6,15.6,15.6C133.9,147.3,139,144.1,141.7,139.2z"/>
	</g>
	<path class="st3" d="M213.4,75c0,0,0-0.1,0-0.1c0-0.2,0.1-0.4,0.1-0.6c0,0,0,0,0,0c0-0.2,0-0.3,0-0.5c0-0.1,0-0.1,0-0.1
		c0-0.2-0.1-0.4-0.2-0.5c0,0,0,0,0,0c-0.1-0.1-0.1-0.3-0.2-0.4c0,0,0-0.1-0.1-0.1c0,0-0.1-0.1-0.1-0.1c-0.1-0.2-0.2-0.3-0.4-0.5
		c0,0,0,0,0,0l-31.7-31.7c-0.6-0.6-1.5-1-2.4-1H77.5c-0.9,0-1.7,0.4-2.4,1L43.5,72c0,0,0,0,0,0c-0.1,0.1-0.3,0.3-0.4,0.5
		c0,0-0.1,0.1-0.1,0.1c0,0-0.1,0.1-0.1,0.1c-0.1,0.1-0.1,0.2-0.2,0.4c0,0,0,0,0,0c-0.1,0.2-0.1,0.3-0.2,0.5c0,0,0,0.1,0,0.1
		c0,0.2,0,0.3,0,0.5c0,0,0,0,0,0c0,0.2,0,0.4,0.1,0.6c0,0,0,0.1,0,0.1c0,0.2,0.1,0.3,0.1,0.5c0,0,0,0.1,0,0.1
		c0.1,0.1,0.1,0.3,0.2,0.4l82.1,139c0.6,1,1.7,1.6,2.9,1.6c1.2,0,2.3-0.6,2.9-1.6L213,76c0.1-0.1,0.1-0.3,0.2-0.4c0,0,0-0.1,0-0.1
		C213.3,75.4,213.3,75.2,213.4,75z M192.2,98.1c-0.8-0.6-1.6-1.3-2.4-1.9c-11.8-9-24.8-15.2-38.5-18.5h23.1
		c7.8,3.4,15.3,7.6,22.4,12.6L192.2,98.1z M184.4,111.3c-2.7-2.6-5.5-5.1-8.6-7.4c-14.1-10.8-30.7-16.5-47.8-16.5
		c-17.1,0-33.7,5.7-47.8,16.5c-3,2.3-5.9,4.8-8.6,7.4l-5-8.4c1-0.8,1.9-1.6,2.9-2.3c17.3-13.2,37.5-20.2,58.5-20.2
		c20.9,0,41.2,7,58.5,20.2c1,0.7,1.9,1.5,2.9,2.3L184.4,111.3z M176,125.5c-6.5-7.5-22.8-22.8-48-22.8S86.5,118,80,125.5l-5.4-9.2
		c2.8-2.9,5.8-5.5,9-8c13.2-10,28.5-15.3,44.5-15.3c15.9,0,31.3,5.3,44.5,15.3c3.2,2.4,6.2,5.1,9,8L176,125.5z M135.3,194.5
		c-4.8,0.3-9.7,0.3-14.5,0l-4.4-7.4c3.9,0.5,7.7,0.7,11.6,0.7c3.9,0,7.8-0.2,11.6-0.7L135.3,194.5z M143.2,181
		c-10,1.6-20.4,1.6-30.5,0l-5-8.4c6.6,1.8,13.3,2.7,20.2,2.7c6.9,0,13.6-0.9,20.2-2.7L143.2,181z M152.4,165.4
		c-7.9,2.9-16.1,4.3-24.4,4.3c-8.4,0-16.6-1.5-24.4-4.3l-9.2-15.6c8.4,5.5,19.6,10.2,33.7,10.2c14,0,25.3-4.7,33.7-10.2L152.4,165.4
		z M150,131.3c0,12.1-9.9,22-22,22s-22-9.9-22-22c0-12.1,9.9-22,22-22S150,119.2,150,131.3z M151.4,114.8c10.8,5.3,18,13,20.8,16.5
		c-2.9,3.5-10,11.3-20.9,16.6c3.3-4.7,5.3-10.4,5.3-16.6C156.7,125.2,154.7,119.5,151.4,114.8z M104.6,147.9
		c-10.8-5.3-18-13-20.8-16.5c2.9-3.5,10-11.2,20.8-16.5c-3.3,4.7-5.3,10.4-5.3,16.5C99.3,137.5,101.3,143.2,104.6,147.9z M59.2,90.3
		c7.1-5,14.6-9.3,22.4-12.6h23.1C91,81,77.9,87.2,66.2,96.2c-0.8,0.6-1.6,1.2-2.4,1.9L59.2,90.3z M68.9,77.7
		c-4.3,2.4-8.5,5-12.6,7.8l-4.6-7.8H68.9z M128,206.8l-3.9-6.6c1.3,0,2.6,0.1,3.9,0.1c1.3,0,2.6,0,3.9-0.1L128,206.8z M199.7,85.5
		c-4.1-2.9-8.3-5.5-12.6-7.8h17.2L199.7,85.5z"/>
	<path class="st4" d="M128,131.7L128,131.7L128,131.7L128,131.7L128,131.7L128,131.7L128,131.7l13.7,7.6c2.1-3.7,2.6-8.3,1.1-12.7
		c-0.3-0.9-0.7-1.7-1.1-2.5L128,131.7L128,131.7z"/>
</g>
</svg>
